<svg xmlns="http://www.w3.org/2000/svg" viewBox="0 0 24 24" width="80" height="80">
  <path fill="#E76F51" d="M19.1 14.1c-.8 2.2-2.9 3.6-5.1 4.1-3 .7-6.2.2-8.9-1.2-1 .9-.8 2.4.3 3.1 3 1.8 7 1.8 10 .3 2-1 3.5-3.1 3.7-5.4.1-.3 0-.6 0-.9zm-3-11.4c-.1.5-.1 1-.1 1.5 0 2 1.3 3.7 2.6 5.3 1.2 1.5 1.7 3.5 1.2 5.4.9-1.5 1.1-3.4.6-5.1-.6-2.1-2.2-3.8-3.4-5.6-.3-.5-.6-1.1-.9-1.5zm-5 4.8c-.2 1.4-.2 2.9.2 4.3 1 3.1 3.9 5.3 7 6.1-.2-.1-.5-.2-.7-.4-2.8-1.9-4.2-5.3-3.6-8.6.2-1.3.8-2.6 1.7-3.6-.8.4-1.5 1-2.1 1.7-.8.5-1.7.5-2.5.5zm-.8-2.9C9 6.2 8.4 8 8.4 9.9c0 2 1.1 3.9 2.5 5.3.4.4.9.8 1.4 1.1.2.1.4.3.4.5s-.2.4-.4.4c-.5 0-1-.2-1.4-.4-2.2-1.2-3.8-3.5-4-6.1-.2-2 .5-4.1 1.9-5.6.5-.5 1-.9 1.6-1.3 0 .4 0 .9-.2 1.3z"/>
</svg>
