<svg xmlns="http://www.w3.org/2000/svg" viewBox="0 0 24 24" width="80" height="80">
  <path fill="#3776AB" d="M11.898 0c-2.404 0-4.636.035-5.918.098-3.076.15-4.453 1.34-4.876 4.316-.484 3.42-.497 5.753 0 9.172.368 2.534 1.488 3.864 4.195 4.125l2.09.203v-2.884c0-2.476 1.848-4.82 4.412-4.82h5.547c1.785 0 3.328-1.503 3.328-3.354V3.8c0-2.227-1.39-3.486-3.882-3.687C15.353.033 13.568 0 11.898 0zm-3.79 2.067a.933.933 0 1 1 0 1.866.933.933 0 0 1 0-1.866zm8.835 3.315v2.884c0 2.476-1.848 4.82-4.412 4.82H8.984c-1.785 0-3.328 1.503-3.328 3.354v3.067c0 2.227 1.39 3.486 3.882 3.687 1.442.08 3.227.113 4.898.113 2.404 0 4.636-.035 5.918-.098 3.076-.15 4.453-1.34 4.876-4.316.484-3.42.497-5.753 0-9.172-.368-2.534-1.488-3.864-4.195-4.125l-2.09-.203zm-1.89 14.776a.933.933 0 1 1 0-1.866.933.933 0 0 1 0 1.866z"/>
</svg>
